<svg width="35" height="35" viewBox="0 0 35 35" fill="none" xmlns="http://www.w3.org/2000/svg">
<g clip-path="url(#clip0_218_2)">
<path d="M31.7188 0.820309H3.28125C2.63602 0.813743 2.01454 1.06341 1.55318 1.51452C1.09181 1.96563 0.828245 2.58135 0.820312 3.22656V31.7789C0.82968 32.4232 1.09388 33.0375 1.55509 33.4874C2.01629 33.9373 2.63696 34.1863 3.28125 34.1797H31.7188C32.364 34.1848 32.9851 33.9343 33.4462 33.4829C33.9073 33.0315 34.171 32.4159 34.1797 31.7707V3.21836C34.1682 2.57504 33.9032 1.96226 33.4424 1.51322C32.9816 1.06417 32.3622 0.815163 31.7188 0.820309Z" fill="#0076B2"/>
<path d="M5.75859 13.3246H10.7105V29.2578H5.75859V13.3246ZM8.23593 5.39492C8.8039 5.39492 9.3591 5.56338 9.83131 5.87898C10.3035 6.19458 10.6715 6.64314 10.8887 7.16793C11.106 7.69271 11.1627 8.27013 11.0517 8.82714C10.9407 9.38415 10.6669 9.89573 10.2651 10.2972C9.86333 10.6986 9.35149 10.9718 8.79438 11.0823C8.23726 11.1927 7.65989 11.1355 7.13532 10.9178C6.61074 10.7 6.16253 10.3316 5.84738 9.85912C5.53222 9.38661 5.3643 8.83124 5.36484 8.26328C5.36556 7.50229 5.66837 6.77272 6.20673 6.23488C6.74508 5.69703 7.47494 5.39492 8.23593 5.39492ZM13.8168 13.3246H18.5637V15.5121H18.6293C19.291 14.2598 20.9043 12.9391 23.3133 12.9391C28.3281 12.9281 29.2578 16.2285 29.2578 20.5078V29.2578H24.3059V21.5059C24.3059 19.6602 24.273 17.284 21.7328 17.284C19.1926 17.284 18.7605 19.2965 18.7605 21.3855V29.2578H13.8168V13.3246Z" fill="white"/>
</g>
<defs>
<clipPath id="clip0_218_2">
<rect width="35" height="35" fill="white"/>
</clipPath>
</defs>
</svg>
